<?xml version="1.0" encoding="UTF-8"?>
<svg width="581.25" height="312.19" version="1.1" viewBox="0 0 581.25 312.1875" xmlns="http://www.w3.org/2000/svg">
 <path d="m413.91 311.55c-7.6722-0.36352-19.126-2.1516-21.492-3.3553-5.0467-2.5666-5.4015-2.6557-6.6037-1.658-2.5272 2.0974-37.932-1.398-45.498-4.4918-1.2891-0.52712-4.6555-1.6654-7.4809-2.5295-2.8254-0.86412-6.2574-2.3688-7.6267-3.3438-1.3692-0.97498-4.5419-2.6506-7.0503-3.7237-2.5084-1.073-5.4046-2.7178-6.4358-3.6551-1.0312-0.93727-2.8242-1.992-3.9844-2.3438-1.1602-0.35183-2.1094-1.2292-2.1094-1.9498 0-1.7268-2.9626-3.2511-6.3187-3.2511-1.4806 0-3.9795-0.94922-5.5531-2.1094-1.5736-1.1602-5.5579-3.375-8.854-4.9219s-6.1373-3.1402-6.3138-3.5407c-0.17647-0.4005-1.864-1.5651-3.75-2.5879-7.1462-3.8757-7.5535-4.2259-26.888-23.124-5.1682-5.0515-12.129-10.819-15.469-12.816-6.5102-3.893-8.8196-5.8871-22.224-19.189-4.7584-4.7223-9.0827-8.5859-9.6094-8.5859-0.52671 0-0.95765-0.46434-0.95765-1.0319 0-2.2328-22.552-22.644-26.697-24.163-0.5275-0.1933-2.4357-1.248-4.2404-2.3438-5.5868-3.3921-15.695-6.5894-33.281-10.527-13.825-3.0955-38.451-4.1797-44.635-1.9651-2.2632 0.81051-5.8023 1.7428-7.8648 2.0717-2.0625 0.32893-4.5938 1.1161-5.625 1.7492s-3.6443 1.7163-5.8067 2.4071c-3.8699 1.2362-11.128 6.3991-10.242 7.2852 0.50789 0.50789 13.345-2.3709 15.663-3.5125 0.81869-0.40323 4.9653-0.34416 9.2148 0.13127 7.0363 0.78721 9.8544 1.7202 17.004 5.6301 4.6934 2.5665 10.015 7.9156 11.217 11.275 1.0909 3.0491 0.99936 3.9576-0.86053 8.5401-1.8072 4.4528-2.5621 5.2867-5.733 6.3332-3.1687 1.0458-3.9674 0.99834-6.0384-0.35858-2.987-1.9572-2.9762-2.3863 0.12252-4.8571l2.5091-2.0007-2.0318-3.2876c-4.3578-7.051-18.464-10.947-29.794-8.2288-2.835 0.68011-5.3707 1.5863-5.6349 2.0138-0.26421 0.42751-1.4242 0.77729-2.5778 0.77729-2.3397 0-16.542 8.9483-16.542 10.422 0 0.5169-2.0355 3.1294-4.5234 5.8056-4.8045 5.1682-8.6016 11.68-8.6016 14.751 0 1.0224-0.50191 2.6625-1.1154 3.6448-1.2159 1.947 0.14744 10.177 3.8137 23.021 1.608 5.6334 2.5893 7.2426 7.0034 11.484 6.719 6.4568 8.7694 6.4863 20.845 0.30013 9.733-4.9861 15.457-6.6171 23.221-6.6171 7.6278 0 13.664 5.1298 14.859 12.628 0.21792 1.3672 1.1026 1.8875 3.4062 2.0033 3.6752 0.18483 8.1819 4.0251 10.163 8.6605 1.1794 2.759 1.1656 3.4025-0.11546 5.3576-2.1461 3.2754-4.5751 4.2288-10.102 3.9651-2.7213-0.12984-7.5846 0.11393-10.807 0.54171-5.5995 0.7433-5.8594 0.6891-5.8594-1.2222 0-3.4283 2.6714-6.3384 6.9073-7.5244 5.8253-1.631 9.4257-1.0203 9.806 1.6632 0.39004 2.752 2.6939 3.6716 4.5495 1.816 1.9953-1.9953 0.78845-5.1182-2.8309-7.3252-3.6962-2.2538-11.503-2.402-16.353-0.3106-6.0793 2.6219-12.711 3.7902-20.027 3.5284-7.5195-0.26909-13.097-2.4739-23.841-9.4246-5.5444-3.5868-14.461-12.779-14.461-14.908 0-0.83835-0.69387-4.3991-1.5419-7.9127-1.1186-4.6347-2.0194-6.5133-3.2812-6.8432-1.0895-0.2849-1.7393-1.3023-1.7393-2.723 0-2.5352-3.5212-6.3449-5.8645-6.3449-0.83868 0-1.7856-0.42188-2.1043-0.9375-0.71178-1.1517-7.0312-1.257-7.0312-0.11719 0 0.45117 1.1714 1.0546 2.6031 1.3409 4.0069 0.80138 8.3967 7.1196 11.865 17.077 2.5061 7.1956 4.0502 9.963 8.1406 14.59 2.7763 3.1408 6.8543 6.5701 9.062 7.6208 3.8155 1.8157 6.6077 4.9602 5.4408 6.1271-0.29741 0.29741-1.5271 0.0913-2.7326-0.45793-1.7855-0.81352-3.2202-0.51382-7.7383 1.6165-4.8527 2.288-14.711 4.9188-21.953 5.8584-2.2982 0.29818-2.2832 0.33663 0.77069 1.9769 2.4339 1.3073 4.2777 1.5418 8.4375 1.0734 7.5732-0.85285 14.803-3.0154 19.055-5.6998 5.6186-3.5468 8.2506-3.725 13.763-0.93153 5.4588 2.7662 17.17 4.742 23.649 3.99 8.6093-0.9992 8.6017 2.7759-0.0083 4.1369-6.2422 0.98677-20.348-1.7079-26.888-5.1362l-4.8134-2.5236-4.2502 2.8684c-4.5066 3.0415-10.541 5.5138-15.186 6.2211-9.8882 1.506-11.496 1.4578-15.25-0.45749-4.4175-2.2536-9.5935-8.1333-9.5935-10.898 0-2.7168 2.5947-6.0887 4.6853-6.0887 2.58 0 3.2317 1.7353 1.4084 3.75-0.87446 0.96627-1.3128 2.2053-0.97401 2.7534 1.5212 2.4613 15.88 0.50923 25.103-3.4129l3.5044-1.4901-6.5513-6.8968c-3.6032-3.7932-6.5513-7.3174-6.5513-7.8314 0-0.51408-0.77951-1.7142-1.7323-2.6669-0.95274-0.95273-2.5055-4.6441-3.4506-8.2031-1.0895-4.1029-2.8413-7.8432-4.787-10.221-2.8004-3.4221-3.4598-3.75-7.5412-3.75-3.4884 0-4.5436-0.35649-4.7955-1.6202-0.41721-2.0925 7.5948-7.2861 11.24-7.2861 2.2441 0 2.6282-0.37739 2.6241-2.5781-0.0062-3.3039 5.2219-20.181 7.7685-25.078 1.0726-2.0625 4.1646-5.9445 6.871-8.6268 2.7065-2.6822 6.102-6.901 7.5456-9.375 2.895-4.9613 5.9117-8.6047 13.008-15.71 5.8071-5.8146 7.7337-8.537 11.97-16.913 7.0696-13.979 10.201-27.379 8.1282-34.782-1.4094-5.0339-5.8808-10.687-8.4529-10.687-0.9474 0-1.9833-0.42188-2.302-0.9375-1.9708-3.1888-10.781 2.4687-10.781 6.9231 0 1.2877 0.42188 2.602 0.9375 2.9207s0.9375 1.2331 0.9375 2.032c0 1.8051-4.2771 0.95806-6.8439-1.3554-1.581-1.425-1.9191-1.2575-5.3507 2.6512-2.0147 2.2947-3.681 4.6056-3.703 5.1353-0.06537 1.575-5.51 5.8908-9.0438 7.1686-4.2833 1.5489-5.2776 0.15126-4.5086-6.3374 0.56275-4.7485 0.5449-4.7889-4.3154-9.7788-4.6629-4.7872-4.8564-5.1868-4.339-8.9615 0.53026-3.8686 0.47754-3.9628-2.5338-4.5278-1.7809-0.3341-4.4313-1.9922-6.2967-3.9393-1.7717-1.8493-4.1705-3.7329-5.3307-4.1858-2.6725-1.0433-2.6656-2.1638 0.026568-4.3175 1.1748-0.93977 3.3101-3.7265 4.7452-6.1927 1.5419-2.6498 4.4073-5.6739 7.0047-7.3927l4.3955-2.9086v-5.7323c0-5.4701 0.2573-6.1074 5.625-13.932 4.5692-6.6605 6.0649-8.1947 7.9688-8.1737 3.7122 0.04102 5.8686 3.7965 5.1047 8.8901-1.1038 7.3603 2.5222 10.583 14.781 13.135 14.462 3.0115 20.935 8.3131 20.846 17.075l-0.04946 4.915 3.9347 1.5027c4.3845 1.6745 7.0834 4.981 11.793 14.449 2.824 5.6768 3.0197 6.691 2.8597 14.823-0.22962 11.669-2.8696 19.054-10.441 29.207l-2.4223 3.248 3.75-2.2338c2.0625-1.2286 8.2261-6.8235 13.697-12.433 8.4256-8.6393 10.327-11.16 12.432-16.483 2.8423-7.1884 4.6512-18.531 3.8387-24.07-0.59896-4.0834 1.2136-7.8866 3.1795-6.6715 1.3565 0.83836 0.89937 20.766-0.53975 23.529-0.53452 1.0264-1.693 3.5537-2.5744 5.6162s-2.9951 5.8594-4.6972 8.4375c-3.8236 5.7916-19.101 20.955-25.064 24.879-2.4289 1.5979-5.3356 4.4585-6.4594 6.357-4.2254 7.1379-6.7611 10.483-7.9466 10.483-2.2041 0-2.5043-1.9739-0.61645-4.0538 1.0184-1.122 3.7498-5.6259 6.0699-10.009 7.6252-14.405 10.448-35.137 5.9564-43.742-1.5605-2.9894-6.9971-8.3822-11.026-10.937-2.349-1.4896-14.843-2.6346-14.843-1.3602 0 0.42221-1.0569 1.2492-2.3487 1.8378-2.5191 1.1478-4.8156 7.2189-3.7657 9.955 0.4358 1.1357 1.2099 0.53223 3.2284-2.5168 3.1299-4.7277 6.4449-6.6736 11.37-6.6736 6.8876 0 11.363 3.2188 14.989 10.781 3.3588 7.004 1.7556 21.231-3.6917 32.76-1.5985 3.3832-2.9395 6.6774-2.98 7.3206-0.17662 2.8026-11.854 19.397-14.311 20.337-1.8291 0.69987-7.1494 6.5488-9.5217 10.468-2.3735 3.9209-9.0503 12.836-11.605 15.495-3.7121 3.864-6.6658 8.7794-6.6816 11.119-0.0069 1.0312-1.0151 4.0279-2.2403 6.6592s-2.5176 6.8921-2.8719 9.4683c-0.61706 4.4866-0.51286 4.795 2.4712 7.3144l3.1154 2.6303 0.29031-3.6611c0.15967-2.0136 1.7122-6.6736 3.45-10.355 3.9611-8.3922 17.677-22.812 23.521-24.728 2.022-0.66296 4.52-1.7506 5.5513-2.417 4.0949-2.6462 19.108-5.4112 24.815-4.5701 7.9744 1.1754 18.88 7.9417 20.558 12.755 1.2784 3.6673 2.9088 2.6127 2.9088-1.8815 0-3.888-1.8585-6.0555-9.375-10.934-6.1252-3.9753-9.947-5.0938-17.459-5.1097-6.8454-0.0144-18.781 2.4603-23.048 4.7791-1.3165 0.71531-5.5026 2.896-9.3024 4.8459-7.1824 3.6858-14.922 10.139-15.299 12.755-0.30094 2.093-4.2664 2.6085-4.2664 0.55459 0-2.6165 8.2579-11.408 12.659-13.477 2.2744-1.0691 4.5594-2.7364 5.0779-3.7052 0.51848-0.96877 3.0349-3.3569 5.592-5.307s4.8351-4.2225 5.0623-5.0498 4.1626-3.4478 8.7455-5.8234c6.1976-3.2126 9.8821-4.491 14.38-4.9898 3.3263-0.3688 6.7724-1.0583 7.658-1.5323 0.88561-0.47396 9.7656-0.89226 19.733-0.92954 20.875-0.0781 27.184 0.9769 46.717 7.8121 13.214 4.624 20.099 7.9877 26.255 12.826 4.572 3.5936 14.925 13.293 20.456 19.165 4.3773 4.6472 17.662 17.9 21.936 21.884 4.4094 4.1098 9.6492 7.5899 12.508 8.3074 1.296 0.32527 3.4272 1.9954 4.7361 3.7115 2.6465 3.4697 25.036 24.451 28.446 26.658 1.1954 0.77344 3.3359 2.3555 4.7566 3.5156 1.4207 1.1602 3.0285 2.1094 3.573 2.1094 0.54447 0 1.3273 0.55033 1.7397 1.223s3.07 2.1879 5.906 3.3672c2.8359 1.1794 6.6328 3.1214 8.4375 4.3157s5.1252 2.4669 7.3789 2.828c3.2097 0.51431 5.0863 1.6504 8.6596 5.2426 2.509 2.5223 5.0676 4.586 5.6856 4.586 0.61807 0 1.9947 0.77569 3.0592 1.7238 1.8083 1.6106 12.251 5.9709 20.593 8.5982 10.673 3.3617 33.472 6.1653 43.555 5.3559 4.5664-0.36654 6.9417-0.1128 9.0237 0.96394 4.5702 2.3635 25.371 3.2581 37.67 1.6201 5.5858-0.74398 12.054-1.7856 14.375-2.3146s5.6953-1.2244 7.5-1.5452 4.3359-1.5285 5.625-2.6838 3.521-2.8478 4.96-3.761c1.4389-0.91321 3.0358-2.4444 3.5486-3.4026 1.6657-3.1124-2.4175-2.056-6.3324 1.6383-7.1394 6.737-15.369 9.0581-37.263 10.509-11.213 0.74321-27.73-0.24032-27.724-1.6508 9.4e-4 -0.28611 1.5432-1.3639 3.4261-2.3952s4.5186-3.3168 5.8568-5.0791l2.4332-3.2041-3.6501 0.58885c-2.0075 0.32386-4.5388 1.3494-5.625 2.2789-6.3531 5.4365-11.318 6.7458-21.662 5.7126-4.6406-0.46349-10.336-0.97601-12.656-1.1389-4.068-0.28565-7.3989-0.84077-24.175-4.0291-4.273-0.81208-8.736-2.237-9.9177-3.1666-1.1817-0.92954-3.2754-1.9729-4.6527-2.3186-1.3773-0.34567-2.5041-0.9589-2.5041-1.3627s-0.94922-0.97284-2.1094-1.2645c-2.4885-0.62556-10.078-7.4665-10.078-9.084 0-1.2312 2.4448-0.87726 7.1271 1.0317 4.0954 1.6697 11.726-0.92534 16.991-5.7784 2.1807-2.0102 4.6072-3.6548 5.3922-3.6548s1.4272-0.42188 1.4272-0.9375c0-2.4209-12.065-0.12126-15.784 3.0086-2.3827 2.0049-4.1053 2.4432-11.834 3.0104-8.3174 0.61054-9.663 0.45935-16.729-1.8797-4.2263-1.399-7.8951-2.8209-8.1529-3.1598-0.25781-0.33889-3.3834-2.2033-6.9457-4.1432s-8.3486-5.0802-10.636-6.9786c-8.1489-6.7627-24.606-23.422-24.606-24.908 0-1.9496 3.9892-2.0127 6.8945-0.10903 5.8357 3.8237 21.953 2.4181 26.699-2.3286 3.6059-3.6059 8.6146-6.5665 11.116-6.5708 2.9082-5e-3 3.3736-1.3424 1.1632-3.3427-1.6993-1.5378-2.5201-1.6077-7.9553-0.67667-3.8667 0.66235-7.6191 2.0705-10.366 3.8902-2.45 1.6228-6.1838 3.1053-8.6632 3.4398-2.3966 0.32326-5.7142 1.0035-7.3725 1.5116-4.9674 1.522-15.473-0.59992-23.516-4.7499-3.2077-1.655-13.493-9.1022-15.657-11.336-0.51563-0.53241-2.8666-2.9628-5.2244-5.4008s-5.5849-6.3312-7.1712-8.6515c-4.7758-6.9855-13.579-16.114-16.863-17.486-5.4086-2.2598-3.8447-3.6186 4.1805-3.6322 12.898-0.0218 19.138-2.2437 28.11-10.009 2.3202-2.0081 5.435-3.8944 6.9217-4.1918 5.9469-1.1894 1.0728-3.7007-6.9002-3.5552-3.9293 0.0717-5.9563 0.60009-7.5 1.955-6.5146 5.7182-17.37 10.963-24.703 11.936-4.5013 0.59713-5.345 0.33156-15.909-5.0078-15.082-7.6231-19.663-9.0369-31.803-9.816-15.149-0.97219-16.601-2.4435-4.1621-4.2181 19.992-2.8522 33.251-6.379 42.768-11.376 8.2775-4.3464 13.721-7.613 17.429-10.458 1.8476-1.418 3.7504-2.5781 4.2285-2.5781s2.4086-1.0447 4.2901-2.3215 5.6318-3.2257 8.334-4.3308c2.7022-1.1052 6.2653-2.6026 7.918-3.3276 8.0394-3.5268 22.529-3.838 28.757-0.61757 3.3859 1.7509 7.5898 4.5951 10.789 7.2994 1.6058 1.3575 2.1147 1.4947 1.8014 0.48561-0.40369-1.3003-5.5836-5.5941-9.7633-8.0932-0.97684-0.58406-1.4817-1.3706-1.1219-1.748 0.86146-0.90338 8.4784 2.8139 10.624 5.1849 1.5409 1.7026 1.82 1.7344 3.3193 0.37746 1.5056-1.3625 2.265-1.1845 9.4572 2.2167 4.3011 2.034 9.2968 3.9646 11.101 4.2903s5.3906 2.2689 7.9688 4.3184c2.5781 2.0495 6.2261 4.7678 8.1067 6.0407 6.1998 4.1966 17.985 19.233 21.498 27.428 0.96357 2.2479 2.3739 4.3258 3.134 4.6175 0.78649 0.3018 1.8396 2.8181 2.444 5.8394 0.58409 2.92 1.4317 7.0058 1.8836 9.0795 0.8454 3.8794-0.19924 14.525-1.9207 19.573-1.612 4.7272-0.92332 5.8656 1.1915 1.9695 1.6891-3.1118 2.0954-5.6646 2.387-15 0.30482-9.7561 0.0895-11.913-1.6214-16.24-1.0851-2.7445-1.703-5.4267-1.3732-5.9604 0.60997-0.98696 3.936 2.3195 6.7714 6.7317 0.82841 1.2891 3.485 4.6641 5.9035 7.5 4.3763 5.1316 9.2518 13.297 9.2518 15.495 0 0.63417 1.4766 3.6051 3.2812 6.6021s3.2812 6.0624 3.2812 6.8122c0 2.4972 5.1048 9.4738 7.7266 10.56 1.4223 0.58913 2.5859 1.4134 2.5859 1.8317s0.73857 0.99501 1.6413 1.2815c2.8114 0.89229 3.9526 5.368 4.2718 16.754 0.16941 6.0424 0.70125 10.973 1.1819 10.956 0.50706-0.0174 0.74081-4.5962 0.5569-10.909l-0.31693-10.879 2.6607 1.9028c4.2487 3.0385 14.575 14.213 19.298 20.883 5.4764 7.7337 12.495 13.713 17.387 14.812 4.2713 0.95969 10.162 5.0844 10.991 7.6959 0.30659 0.96599 0.076 2.656-0.51246 3.7555-0.98172 1.8344-0.88942 1.94 1.1199 1.2811 1.2044-0.3949 3.4052-0.63486 4.8906-0.53322 3.6314 0.24846 6.2054-0.6552 6.2054-2.1786 0-0.68805 1.3287-2.0923 2.9526-3.1204 2.4163-1.5299 3.4568-1.6937 5.7287-0.90172 4.6206 1.6108 21.594 0.23058 31.631-2.5721 15.16-4.233 24.375-2.527 24.375 4.5122 0 2.7531 0.0396 2.7767 1.875 1.1156 1.0312-0.93327 1.875-2.6376 1.875-3.7875 0-2.3299-3.5575-5.1188-6.5295-5.1188-1.0494 0-1.908-0.42188-1.908-0.9375 0-0.51563 0.81362-0.9375 1.808-0.9375 0.99443 0 2.3871-0.52734 3.0949-1.1719 0.70777-0.64453 4.0074-2.6076 7.3326-4.3623 6.5987-3.4822 9.5154-5.6091 17.589-12.826 4.928-4.4053 5.5794-4.7129 8.5956-4.0585 1.8176 0.39436 4.2367 1.8832 5.46 3.3603l2.1964 2.6522-0.60013-4.7331-0.60012-4.7331 7.7964-7.5345c7.2805-7.0359 12.099-13.696 10.829-14.967-0.30265-0.30264-1.1735 0.6491-1.9352 2.115-1.3265 2.5528-4.0967 5.7006-15.229 17.304-4.1114 4.2856-5.4893 5.1802-7.4123 4.8126-2.5179-0.48132-2.846-1.2856-1.5543-3.8102 0.44429-0.86844 1.094-2.7745 1.4438-4.2357 0.98724-4.1237-1.0984-2.0948-2.2526 2.1913-0.97916 3.6363-8.4929 12.52-13.367 15.805-10.651 7.1769-13.377 8.781-17.742 10.439-2.7409 1.041-5.716 2.3114-6.6114 2.8231-0.89535 0.51174-3.7731 0.93044-6.3951 0.93044-4.5406 0-4.6892-0.078-3.1255-1.6406 0.90294-0.90235 2.8315-3.5162 4.2857-5.8086 3.1072-4.8981 3.6586-12.027 1.1261-14.56-2.0559-2.0559-2.208-1.6574-1.2745 3.3392 0.98134 5.2529-0.51126 10.206-4.4958 14.918-3.0835 3.6464-11.104 8.0334-16.149 8.8331-1.8047 0.28605-5.9378 0.94844-9.1846 1.472-5.6406 0.9095-13.861-0.0928-15.19-1.8523-0.25781-0.3412-2.7891-0.36382-5.625-0.0503-2.8359 0.31356-6 0.28609-7.0312-0.061-1.0312-0.34714-5.25-1.6083-9.375-2.8025-11.176-3.2357-13.251-4.8527-23.506-18.322-2.8022-3.6803-6.2534-7.4505-7.6693-8.3782-4.9408-3.2372-14.211-13.368-13.044-14.254 3.9773-3.0196 14.352-3.7665 22.423-1.6142 2.0155 0.53749 2.5781 0.36399 2.5781-0.79503 0-3.452-7.4594-4.4487-19.463-2.6006-3.7435 0.57638-7.7009 1.5762-8.7944 2.2219-1.5899 0.93879-2.073 0.93921-2.4124 2e-3 -0.2334-0.64453-1.0218-1.1719-1.7518-1.1719-0.73012 0-3.5926-2.2148-6.361-4.9219-3.9528-3.8651-6.3766-7.6394-11.288-17.578-6.2292-12.604-9.4846-17.935-16.227-26.574-7.1461-9.1552-7.6495-8.2646 4.5048-7.9696 5.8848 0.14285 12.291-0.0988 14.236-0.53706 2.6812-0.60404 3.9286-0.45656 5.1562 0.60966 0.89068 0.77354 2.7404 1.6722 4.1104 1.9971 1.3701 0.32486 3.1967 0.86144 4.0591 1.1924 1.272 0.48813 1.5097 0.10674 1.259-2.0203-0.22436-1.9032-1.2086-3.0752-3.5903-4.2751-3.1337-1.5788-4.0611-1.579-20.625-4e-3 -9.5391 0.90693-17.86 1.391-18.491 1.0756-1.3123-0.65593-9.6337-12.799-9.6337-14.058 0-1.7408-10.962-12.159-14.811-14.077-2.2165-1.1042-4.2731-2.641-4.5701-3.4151-0.60491-1.5764-8.4126-5.9355-13.431-7.4988-4.222-1.3152-3.7932-2.7959 0.72247-2.4946 3.8564 0.25729 9.2396 0.29916 17.09 0.1329 2.8359-0.0601 6.5273 0.19728 8.2031 0.57186 3.7905 0.84725 4.251-1.3396 0.76338-3.6248-1.9809-1.298-4.807-1.4184-21.328-0.90916-18.355 0.56577-19.163 0.51432-22.326-1.4206-1.8047-1.1042-3.94-2.0092-4.7451-2.0112-0.80512-2e-3 -2.3571-0.83571-3.4489-1.8528-1.814-1.6901-3.4545-1.8597-19.047-1.9695-9.3843-0.0661-17.325 0.26045-17.645 0.72559-0.32034 0.46513-2.6918 1.6158-5.27 2.557-2.5781 0.94122-6.0737 2.3459-7.7679 3.1215-1.6942 0.77559-3.2951 1.1954-3.5576 0.93296-0.54952-0.54952 3.858-10.349 6.2207-13.831 0.87476-1.2891 1.886-3.8203 2.2473-5.625 0.36126-1.8047 1.3629-5.1797 2.226-7.5 1.9162-5.1519 2.28-31.993 0.48418-35.718-0.59672-1.2377-1.6132-4.2986-2.2588-6.802-2.0373-7.8996-11.278-17.107-19.351-19.281-4.9049-1.3207-11.479-5.001-14.303-8.0072-2.6213-2.7902-4.7206-1.791-4.7206 2.247 0 3.0834 3.273 5.7001 9.8611 7.8837 11.766 3.8999 21.833 14.363 25.54 26.547 1.8449 6.0635 2.2366 9.4013 2.2379 19.069 2e-3 14.237-2.0581 23.172-7.6995 33.391-5.2178 9.4523-7.4945 11.938-15.036 16.418-3.5565 2.1128-6.4663 4.2154-6.4663 4.6722 0 0.45685-0.63281 0.83065-1.4062 0.83065s-1.4062-0.34834-1.4062-0.77408c0-0.98173 4.0811-4.8509 5.1166-4.8509 1.799 0 14.156-14.011 17.132-19.426 4.3146-7.8494 5.6636-13.436 6.379-26.416 0.69087-12.535-0.37054-18.426-5.1226-28.433-3.8515-8.1104-10.041-13.647-21.161-18.929-7.7758-3.6931-12.656-7.8337-12.656-10.738 0-2.0796 5.1103-8.4624 7.194-8.9854 2.9293-0.73522 3.6968-0.19793 4.3447 3.0415 0.29201 1.4601 1.5067 3.1654 2.6992 3.7896 1.1926 0.62419 3.6018 2.1805 5.3538 3.4586 1.752 1.278 4.0856 2.3237 5.1856 2.3237 3.068 0 11.82 5.957 16.004 10.893 2.0625 2.4332 4.9583 7.4114 6.435 11.063 2.5553 6.3177 2.6905 7.3858 2.7978 22.107 0.0981 13.455-0.16891 16.506-2.0508 23.438-1.19 4.3828-3.1003 9.0234-4.2453 10.312-2.5216 2.8391-5.5856 9.375-4.3949 9.375 0.47046 0 1.4882-0.63281 2.2616-1.4062s1.9637-1.4124 2.6451-1.4199c0.68136-8e-3 2.9362-0.6053 5.0107-1.3284 2.2716-0.79184 9.17-1.4775 17.344-1.7239 11.493-0.34645 14.348-0.14301 18.64 1.3284 2.7878 0.95564 6.0573 1.7375 7.2656 1.7375s2.2018 0.31641 2.2077 0.70313c6e-3 0.38671 1.588 1.4383 3.5156 2.3368 3.0072 1.4017 5.3687 1.5579 16.63 1.1001 7.2188-0.29349 15.797-0.48792 19.063-0.43207 9.2523 0.15823 12.625 3.3523 10.461 9.9078-1.6495 4.998-6.5553 7.069-6.5553 2.7674 0-2.5119-2.589-4.1212-6.0938-3.7878-3.6979 0.35183-8.9056 1.6872-8.8707 2.2747 0.0454 0.76415 6.31 5.3417 12.685 9.2687 5.8312 3.5922 10.168 8.4294 15.065 16.803 4.723 8.076 6.8662 9.1465 16.672 8.3274 4.1656-0.34795 9.1303-1.0383 11.033-1.5341 1.9023-0.4958 6.0326-0.93768 9.1784-0.98197 4.8016-0.0676 6.3222 0.33695 9.4724 2.5201 2.064 1.4303 4.1061 3.2321 4.5381 4.004 0.8559 1.5294-1.2856 7.6585-3.0811 8.818-2.0327 1.3127-5.0601 0.74239-5.5265-1.0412-0.68747-2.6289-5.5174-3.3081-21.556-3.0312-2.9648 0.0512-5.3886 0.41155-5.3861 0.8008 3e-3 0.38926 1.479 2.3132 3.2812 4.2755s3.2768 3.9915 3.2768 4.5094c0 0.51787 1.4766 2.8754 3.2812 5.2389 1.8047 2.3635 3.2812 4.8041 3.2812 5.4235 0 0.61938 0.84375 1.8897 1.875 2.823s1.875 2.0938 1.875 2.579c0 3.1058 7.0869 14.999 11.874 19.927l5.4701 5.631 5.1562-1.7039c2.8359-0.93712 8.8679-1.9446 13.404-2.2387 9.4295-0.61146 13.828 0.91802 15.71 5.4633 1.5127 3.652 0.34099 6.1973-3.8332 8.3268-4.5489 2.3207-4.5272 2.322-5.5435-0.35112-0.62594-1.6463-1.766-2.3345-4.4675-2.6969-4.11-0.55127-10.928 0.33158-10.716 1.3876 0.0772 0.38448 2.7753 3.0212 5.9959 5.8594 9.2387 8.1417 11.026 9.9582 18.768 19.077 4.5077 5.3094 7.9737 8.5831 9.0873 8.5831 0.99013 0 5.632 1.2838 10.315 2.8528 4.6833 1.5691 8.9128 2.607 9.3989 2.3066 0.48609-0.30042 5.15 0.16452 10.364 1.0332 8.126 1.3538 10.441 1.411 16.201 0.40069 9.3294-1.6362 14.151-3.6665 18.437-7.7633 4.382-4.1886 6.3118-9.5708 5.035-14.043-0.82665-2.8952-1.1659-3.0957-6.0012-3.5473-2.8188-0.26324-5.6238-0.79778-6.2333-1.1879-0.60951-0.3901-1.6247-3.0171-2.2559-5.8377-1.2708-5.6783-3.2837-7.6316-8.3773-8.1291-4.2389-0.41404-4.465-2.0701-0.75386-5.5207 2.8178-2.62 3.5526-2.8527 7.5802-2.4013 4.0786 0.45713 4.5989 0.28317 6.0851-2.0349 2.9262-4.5638 5.6427-7.038 7.1095-6.4751 0.86159 0.33063 1.2311 1.2616 0.94097 2.3709-0.26271 1.0046 9e-3 2.1275 0.60451 2.4954 1.5612 0.96487 13.32-1.38 15.218-3.0347 2.458-2.1429 4.6672-0.83093 3.9108 2.3226-0.96946 4.0416-2.9648 7.503-5.2464 9.1011-2.0469 1.4337-2.0542 1.511-0.40543 4.3022 2.0814 3.5235 1.3625 7.6816-1.7516 10.131-2.0732 1.6308-2.136 1.9599-1.003 5.2557 1.4823 4.3116 0.43895 11.095-2.2744 14.786-1.0268 1.3971-1.867 2.7115-1.867 2.9209 0 0.59687 9.7066-2.7567 13.232-4.5714 5.5614-2.8631 16.867-10.819 19.717-13.875 1.5145-1.6239 3.8105-5.2641 5.1022-8.0894 2.205-4.8228 2.249-5.2099 0.71967-6.3281-0.89594-0.65512-2.0764-1.1911-2.6233-1.1911-0.54686 0-1.9796-1.8574-3.1839-4.1275-1.743-3.2855-1.9817-4.516-1.1703-6.0321 1.4676-2.7421 1.2552-6.7006-0.38691-7.2136-4.9413-1.5437-4.8422-1.3804-2.2163-3.6524 1.3592-1.176 4.152-2.4069 6.2064-2.7354 2.0543-0.3285 4.2635-1.2339 4.9092-2.0119 1.5147-1.8251 3.4454-1.8048 4.4819 0.0472 0.68626 1.2263 1.2231 1.2773 3.3318 0.31646 3.1316-1.4269 4.1138-0.56409 2.5929 2.2777-0.99205 1.8537-0.8567 2.771 0.90862 6.1578 1.8121 3.4766 1.9396 4.4292 1.009 7.5354-0.58593 1.9556-2.1327 4.6231-3.4372 5.9276-2.0602 2.0602-2.2892 2.889-1.7427 6.3064l0.62916 3.9345 7.2555-7.4031c8.7629-8.9411 11.694-13.952 9.7315-16.636-2.434-3.3286-1.1919-8.8939 2.5828-11.573 2.283-1.6202 2.2036-5.884-0.16569-8.896l-1.8919-2.4052 2.1005-1.4712c1.1553-0.8092 2.785-1.4713 3.6216-1.4713s2.2847-0.84375 3.218-1.875c2.1683-2.3959 5.1897-2.4183 5.8108-0.043 0.38227 1.4618 1.0276 1.7222 3.1935 1.2891 2.313-0.46262 2.7144-0.24826 2.7144 1.4493 0 1.0957-0.35416 1.9922-0.78701 1.9922-1.5213 0-2.963 4.8292-2.963 9.9252 0 6.1052-2.5193 11.713-5.968 13.284-1.6161 0.73636-2.7363 2.3584-3.5266 5.1066-0.63699 2.2151-1.9254 5.1473-2.8631 6.516-0.93769 1.3687-1.7049 2.7588-1.7049 3.0892s-3.351 3.781-7.4466 7.668l-7.4466 7.0673 0.52697 4.4494c0.4796 4.0494 0.2516 4.763-2.5364 7.9383-3.4715 3.9538-7.9397 6.5867-9.9009 5.8342-1.9784-0.75918-1.6061-2.5102 1.1439-5.3806 2.9223-3.0502 2.4238-5.4979-1.1195-5.4979-2.7309 0-5.1831 1.5449-15.165 9.5539-3.7332 2.9954-7.2526 5.4461-7.8209 5.4461s-2.0368 0.7894-3.2634 1.7542c-2.212 1.7399-2.2151 1.7678-0.38225 3.4266 2.4325 2.2014 2.3984 6.9997-0.0684 9.6476-2.419 2.5965-10.981 6.9852-12.181 6.2437-1.4322-0.88514-1.0569-3.2218 0.97588-6.0766 2.627-3.6893 1.6066-5.6204-2.9698-5.6204-5.9274 0-17.058 2.0357-18.665 3.4136-1.7351 1.4881-23.079 3.4641-27.817 2.5753-2.2486-0.42185-3.6182-0.14206-4.8758 0.99607-2.1782 1.9713-9.9301 4.3726-11.8 3.6552-0.76503-0.29358-2.4276 0.14543-3.6945 0.97556-4.4219 2.8973-6.1195 1.5925-6.1195-4.7037 0-4.1579-3.1057-7.3539-8.5641-8.8132-4.6251-1.2365-11.16-6.1796-14.224-10.76-3.7841-5.6555-12.647-16.842-15.481-19.54l-2.8043-2.6693 0.15572 8.2943c0.14614 7.7848 0.32793 8.4863 2.959 11.42 1.9916 2.2204 2.9808 4.4896 3.4165 7.8372 0.48353 3.7152 1.3465 5.4628 4.0801 8.2623 3.0752 3.1493 3.3909 3.9055 2.7941 6.6941-0.79678 3.7232-2.0556 5.4874-3.9155 5.4874-0.90902 0-1.1668-0.59191-0.78353-1.7994 0.72021-2.2692-1.2082-2.9361-7.3891-2.5555-3.7369 0.23008-4.9958 0.77891-6.7056 2.9232-2.193 2.7503-5.1 2.7887-5.1 0.0675 0-2.2181-6.2275-4.4858-8.4711-3.0847-1.402 0.87553-2.4658 0.87434-4.7965-6e-3 -2.0068-0.75749-3.3661-0.82245-4.1199-0.19688-2.3949 1.9878-4.175-0.0537-4.175-4.7877v-4.5511l3.9844-1.0199c2.1914-0.56096 4.4941-1.19 5.1172-1.398 0.62303-0.20792 1.8201-2.7425 2.6602-5.6323 1.2211-4.2004 2.2753-5.796 5.2561-7.9553 2.0508-1.4856 4.1767-2.8504 4.7243-3.0329 2.6416-0.88054 1.863-19.17-0.93532-21.968-0.85693-0.85694-1.5648-2.2129-1.5731-3.0134-8e-3 -0.80041-1.6739-2.3872-3.7014-3.5262s-4.2952-3.2632-5.0392-4.7205c-0.74404-1.4572-1.8829-3.2823-2.5308-4.0558s-1.482-2.4609-1.8535-3.75c-0.37154-1.2891-1.8595-4.875-3.3065-7.9688s-3.0898-6.6797-3.6506-7.9688c-1.7022-3.9127-7.9887-13.433-9.1104-13.798-1.4504-0.47084-2.2857 3.2666-1.6369 7.3242 0.62366 3.9004-1.0511 12.896-3.276 17.596-1.2052 2.5462-1.2756 3.3294-0.32808 3.6492 0.66358 0.22391 2.424 1.4316 3.9122 2.6838 2.2897 1.9267 2.8068 3.2206 3.3632 8.4169 0.36166 3.3771 1.36 8.1131 2.2184 10.524 1.2997 3.6506 2.3328 4.8037 6.1747 6.8921 2.5376 1.3794 4.9171 3.2778 5.2879 4.2188 1.2542 3.183 0.81467 6.5684-1.0749 8.2784-2.0238 1.8315-2.4983 1.6463-4.1731-1.6292-0.6798-1.3295-1.769-2.0169-2.9072-1.8348-1.0011 0.16016-3.8112 0.31457-6.2446 0.34313-3.2198 0.0378-4.5694 0.469-4.9568 1.5838-0.80823 2.326-9.6966 8.8178-11.255 8.2199-0.92966-0.35675-1.2006-1.3537-0.85256-3.1368 0.45561-2.3339 0.0773-2.8311-3.5319-4.6429-2.2232-1.116-6.0632-2.2263-8.5334-2.4673-2.4701-0.24097-5.327-1.1946-6.3486-2.1191-1.706-1.544-2.1042-1.5646-4.8838-0.25319-3.3699 1.5898-5.3701 1.3133-5.3701-0.74243 0-2.8556 3.0962-5.9262 7.4257-7.3642 5.9041-1.961 8.5092-4.4874 8.522-8.2643 0.0127-3.7457 2.1762-11.027 4.1897-14.1 0.83408-1.273 2.7982-2.8454 4.3646-3.4942 8.4539-3.5017 12.506-23.17 7.7155-37.447-0.77858-2.3203-1.9659-4.8516-2.6385-5.625-0.6726-0.77344-2.1141-3.3047-3.2033-5.625-2.9775-6.3429-8.6874-13.737-15.894-20.582-8.2784-7.8628-13.944-11.839-19.577-13.74-2.4739-0.83467-7.193-2.735-10.487-4.2229-9.4286-4.2589-10.11-3.795-5.9937 4.0782 1.5104 2.8887 2.6172 6.601 2.7172 9.1139 0.18288 4.5975 1.2213 5.3704 7.4863 5.5717 7.7964 0.25052 14.783 10.398 15.626 22.694 0.40808 5.9537 1.0308 8.2216 3.2498 11.835 2.4146 3.9322 3.2175 4.5346 6.671 5.0046 2.1593 0.29384 4.3626 0.9709 4.8963 1.5046 1.2537 1.2537 2.9726 13.26 2.2918 16.008-0.68648 2.7711-3.9973 2.843-4.406 0.0957-0.47929-3.2216-2.9023-4.1798-7.4796-2.9581-3.5604 0.9503-4.4486 0.82392-8.4463-1.2019-5.2192-2.6448-5.4674-2.6875-5.4674-0.94096 0 1.5565-5.224 6.1771-6.9839 6.1771-1.2677 0-7.0786 6.2808-7.0786 7.651 0 0.43255-0.84375 0.78645-1.875 0.78645-1.5142 0-1.875-0.625-1.875-3.2483 0-3.563-1.8766-5.1892-5.988-5.1892-3.777 0-6.8314-1.8557-8.6682-5.2665-0.93922-1.744-1.8431-3.171-2.0085-3.171s-2.0472 0.84375-4.1816 1.875c-4.6881 2.265-11.365 2.4223-16.246 0.3827-2.5837-1.0795-4.9492-1.3202-8.552-0.87004-3.0746 0.38414-4.9804 0.26784-4.9804-0.30392 0-1.8598 7.845-7.0729 12.436-8.2638 6.6937-1.7363 8.3171-3.0783 11.878-9.8193 2.4238-4.588 3.3043-7.6316 3.8046-13.152 0.5558-6.1328 1.1594-7.9486 4.1305-12.425 3.3264-5.0115 7.2363-8.0491 10.36-8.0491 1.085 0 1.4515-1.0087 1.4476-3.9844-0.0125-9.5322-3.3626-14.42-13.367-19.504-5.4522-2.7706-6.2434-2.9188-12.398-2.3224-12.447 1.2063-33.051 10.894-49.05 23.063-4.5698 3.4757-12.871 7.4016-15.822 7.4826-0.93567 0.0257-5.2872 1.2413-9.67 2.7014l-7.9688 2.6547 4.5308 1.9861c2.492 1.0923 5.1226 1.9861 5.8459 1.9861 1.3202 0 13.033 5.926 15.105 7.6427 0.60893 0.50432 3.3828 1.1518 6.164 1.4389 6.0604 0.6255 13.879-1.4014 18.569-4.814 1.7723-1.2895 5.5427-3.4938 8.3786-4.8984 4.3735-2.1661 6.2127-2.5273 12.115-2.379 5.7879 0.14535 7.3409 0.53159 9.2297 2.2954 5.0837 4.7474 6.0497 10.834 1.3175 8.3013-3.9721-2.1258-7.2007-1.1933-13.643 3.9405-6.6629 5.3098-11.045 6.957-20.974 7.8842l-5.8832 0.54938 5.9608 5.7226c3.2784 3.1474 7.0255 7.4101 8.3268 9.4726 6.9837 11.069 23.775 24.403 35.602 28.272 7.583 2.4803 18.784 1.2006 27.815-3.1779 5.6954-2.7612 8.5234-3.5468 13.789-3.8305 6.5211-0.35132 6.6913-0.30079 10.956 3.2525 6.392 5.3259 5.9545 6.4884-2.7178 7.2215-7.489 0.63306-9.7058 1.6211-9.7058 4.3261 0 4.0187-6.8244 6.7718-18.518 7.4705l-8.8504 0.52879 4.695 4.4386c2.5822 2.4412 4.8377 4.7616 5.0123 5.1562 0.17452 0.39468 2.8486 2.5922 5.9423 4.8833s6.8906 5.2701 8.4375 6.6199 6.6094 4.1124 11.25 6.139c7.9875 3.4882 8.9448 3.6852 17.948 3.6926 7.4151 7e-3 9.8942-0.32544 11.25-1.5045 3.699-3.2167 10.333-4.8795 17.178-4.3057 3.573 0.29955 7.3615 1.0077 8.419 1.5737 3.0448 1.6295 2.2957 3.4763-1.667 4.11-1.9744 0.31572-5.033 1.623-6.7969 2.9052-6.995 5.0844-9.9421 6.7581-13.957 7.9264-3.9768 1.1572-4.0947 1.2884-2.3438 2.6088 3.7628 2.8376 12.377 6.0897 19.656 7.4205 4.125 0.75416 10.453 1.9584 14.062 2.676 3.6094 0.71765 7.1953 1.314 7.9688 1.3253 0.77344 0.0112 5.4587 0.31125 10.412 0.66665 10.676 0.76601 14.724 0.15845 17.754-2.6647 2.4503-2.2828 13.886-6.2909 18.006-6.3109 2.8858-0.0141 3.4385 1.8563 1.1177 3.7824-0.80322 0.66662-2.0852 2.7074-2.8488 4.5351-0.76365 1.8277-1.8702 3.6208-2.4591 3.9847-2.096 1.2954 6.277 2.0028 16.525 1.3961 10.986-0.65039 24.446-3.3908 29.149-5.9344 1.5469-0.83662 4.3531-2.8901 6.2361-4.5632 5.3164-4.7239 17.714-6.7507 18.426-3.0123 0.20623 1.0823-0.49982 1.8094-2.1621 2.2266-1.4452 0.36272-3.4142 2.1179-4.7504 4.2345-1.2551 1.9883-3.2714 3.8633-4.4806 4.1668-1.2092 0.30347-3.5158 1.9484-5.1258 3.6553-2.569 2.7237-3.7055 3.1816-9.2853 3.7413-3.4969 0.35078-7.6424 1.2238-9.2123 1.94-1.5699 0.71622-6.6324 1.6985-11.25 2.1829-4.6176 0.48435-9.0285 1.0554-9.802 1.2691s-3.9375 0.26847-7.0312 0.12188zm-34.796-29.889c0.67896-1.7693 3.0416-1.7337 3.7284 0.0562 0.37847 0.98627 1.8783 1.3957 5.0222 1.371l4.4825-0.0352-3.75-3.2138c-2.0625-1.7676-3.8906-2.8064-4.0625-2.3085-0.53151 1.5397-4.8638 1.0063-5.5103-0.67847-0.33426-0.87106-0.63743-4.3515-0.67371-7.7344-0.0581-5.4199-0.28872-6.1791-1.941-6.3904-1.0312-0.13186-2.4048 0.10552-3.0524 0.52752-1.5728 1.0249-3.9788 10.498-3.9788 15.666 0 3.5516 0.36241 4.333 2.5386 5.4732 2.1981 1.1517 2.8163 1.1482 4.6088-0.0263 1.1386-0.74602 2.3033-1.9639 2.5882-2.7064zm-12.101-10.085c1.2318-4.4772 1.9846-8.1404 1.673-8.1404-1.4004 0-3.9958 3.2887-3.999 5.0672-4e-3 2.0853-3.2692 8.0604-5.0363 9.2153-0.57965 0.37883-2.0031 0.69523-3.1633 0.70313-3.3752 0.023-2.6867 3.1974 0.9375 4.3225 4.5867 1.4239 6.8487-1.2107 9.5882-11.168zm-267.09 10.61c0.73126 0 1.3296-0.4503 1.3296-1.0007 0-1.1501-3.7068-0.25581-5.1562 1.244-0.63949 0.66173-0.3916 0.77724 0.7798 0.36338 0.94451-0.3337 2.3156-0.60673 3.0469-0.60673zm284.45-10.602c0-2.2218-0.6194-4.8585-1.3764-5.8594-1.2639-1.6711-1.3789-1.392-1.4062 3.4146-0.0164 2.8789 0.25144 5.5156 0.59519 5.8594 1.4748 1.4748 2.1875 0.36238 2.1875-3.4146zm-296.86-0.17725c3.8395-1.822 4.7618-3.5951 3.1841-6.1214-1.8716-2.9969-6.129-4.5962-9.4999-3.5688-1.6075 0.48995-3.9177 1.0938-5.1337 1.342-3.1918 0.65126-13.831 5.5929-14.552 6.7588-0.9458 1.5303 1.2488 2.4614 7.3879 3.1341 7.8361 0.85874 14.76 0.2842 18.614-1.5446zm-21.895-7.543c0.77344-0.28929 3.0938-1.3438 5.1562-2.3433 3.5083-1.7002 11.864-3.7094 15.426-3.7094 2.079 0 9.273 5.568 9.95 7.7011 0.2922 0.92063 1.1356 1.6739 1.8743 1.6739 2.5393 0 1.3402-3.9735-2.2966-7.6103-2.8147-2.8147-4.3694-3.6397-6.8591-3.6397-5.703 0-14.274 1.9305-16.885 3.8032-1.3971 1.002-2.8676 1.8218-3.2678 1.8218-1.3966 0-10.598 5.0003-10.598 5.7592 0 0.42083 1.3711-0.0664 3.0469-1.0827s3.6797-2.0846 4.4531-2.3738zm267.81-11.47c0.35593-1.4031 0.55557-3.8167 0.44365-5.3636s-0.16875-7.7245-0.12628-13.728c0.0726-10.26-0.0594-11.075-2.1974-13.56-2.0542-2.3882-2.5142-2.5352-4.7474-1.5178-3.4686 1.5804-4.1336 4.0492-4.6415 17.232-0.24524 6.3657-0.74009 12.318-1.0996 13.227-0.78405 1.982 1.0297 4.4412 3.2755 4.4412 0.8882 0 2.3662 0.83017 3.2845 1.8448 2.1158 2.3379 4.8723 1.1159 5.8086-2.575zm-16.555-7.0379c1.1494-2.5983 2.0477-7.7034 2.5423-14.448 0.69535-9.4809 0.62621-10.356-0.75998-9.6137-1.5493 0.82916-2.7277 6.4594-2.7277 13.032 0 4.1612-3.986 8.7358-9.0753 10.415l-3.3317 1.0996 3.6254 1.6902c5.9932 2.7941 7.697 2.4129 9.727-2.1762zm33.329 2.582c-1.0009-0.75704-2.3151-1.3764-2.9204-1.3764-0.60536 0-2.1769-0.8466-3.4924-1.8813-1.8168-1.4291-2.7801-3.6264-4.0072-9.1406-2.8885-12.979-3.1446-13.302-2.7851-3.5093 0.18928 5.1562 0.63304 11.168 0.98613 13.359l0.64199 3.9844 6.6984-0.0298c6.0941-0.0271 6.5342-0.154 4.8786-1.4062zm146.22-5.1264c2.3613 0 3.5609-4.5544 1.8767-7.1248-2.1332-3.2556-1.7539-5.4027 1.4602-8.2664 1.5902-1.4169 2.6751-2.7924 2.4108-3.0567-1.0993-1.0993-6.3522 0.95163-8.0874 3.1575-1.9623 2.4947-4.7147 2.4218-4.7147-0.12485 0-0.77637-1.2495-2.0577-2.7766-2.8474-2.6223-1.356-2.836-1.3247-3.8465 0.56326-0.80115 1.497-0.80136 2.5884-8.2e-4 4.3454 0.58798 1.2905 0.85628 2.5591 0.59625 2.8191-0.26004 0.26004-2.8429-0.68679-5.7397-2.104-6.2735-3.0694-9.2059-2.013-3.7582 1.3539 3.8836 2.4002 5.2072 4.4706 5.2274 8.1766 0.0223 4.0931 1.0917 4.9549 7.0763 5.7024 4.6565 0.58165 5.8254 0.42752 7.2027-0.94979 0.90427-0.90427 2.2874-1.6441 3.0736-1.6441zm44.602-14.591c3.2177-2.0312 3.656-2.741 3.656-5.9198 0-3.789-3.146-9.0361-4.8036-8.0116-0.49692 0.30712-1.5864-6e-3 -2.4211-0.69419-1.1545-0.95284-1.6091-0.98092-1.8998-0.11732-0.24298 0.72168-1.3828 0.93513-3.1288 0.58593-2.8632-0.57264-3.5824 0.66449-1.9155 3.2949 0.44621 0.70414 0.43736 2.8904-0.02 4.9257-0.96084 4.2764 0.29288 7.0052 3.5998 7.8352 1.1834 0.29701 2.1849 1.0593 2.2256 1.694 0.0543 0.84618 0.20437 0.82874 0.56272-0.0654 0.2688-0.67069 2.1339-2.258 4.1448-3.5274zm29.158-16.243c2.6903-2.4038 3.0985-3.4329 3.6249-9.1406 0.66792-7.2412-0.55274-10.156-3.2987-7.8771-1.144 0.94945-1.7454 0.96374-2.8256 0.0672-1.1845-0.98303-1.2958-0.49279-0.81332 3.5811 0.49854 4.2094 0.24219 5.1984-2.3694 9.1412-2.2366 3.3767-2.6818 4.7183-1.8844 5.6791 1.6492 1.9872 4.2842 1.482 7.5665-1.4508zm-291.83-8.1218c3.1678-1.5911 4.7645-2.9787 4.7645-4.1406 0-0.96114 0.52734-1.9652 1.1719-2.2313 0.70041-0.28915 0.29524-0.74906-1.0071-1.1432-1.7327-0.52434-2.0641-1.1173-1.6179-2.8948 0.30859-1.2295 0.0551-3.176-0.5633-4.3256-0.63026-1.1716-1.3664-7.9332-1.6751-15.387-0.51228-12.368-0.70829-13.464-2.8083-15.699-2.6566-2.8278-1.9887-4.0993 1.3534-2.5766 3.4178 1.5573 4.0421 3.8422 5 18.3 0.69132 10.434 1.2157 13.466 2.6758 15.469 0.9988 1.3702 2.078 3.1965 2.3983 4.0586 0.32026 0.86206 2.4011 2.5932 4.6242 3.847 3.4853 1.9657 4.8152 2.2017 9.6577 1.7139 4.3938-0.44263 5.6856-0.93275 5.937-2.2524 0.45929-2.4116-2.4759-6.5481-4.1819-5.8934-0.76772 0.2946-2.6326-0.10389-4.1441-0.88553-4.0259-2.0819-7.1737-8.9956-7.9097-17.372-0.73823-8.4023-1.9234-11.858-5.103-14.881-1.3198-1.2546-2.8343-3.153-3.3654-4.2188-1.2415-2.4912-8.2988-4.1579-10.853-2.563-3.8093 2.379-4.4733 1.5108-4.3614-5.7029 0.0812-5.2335-0.3661-7.7673-1.9446-11.016-1.1275-2.3203-1.8212-3.1641-1.5416-1.875 1.5626 7.2039 2.1838 12.636 1.7138 14.985-0.4293 2.1465-1.1678 2.7755-3.8494 3.2786-5.0213 0.94199-7.3339 2.9108-9.5961 8.1695-1.5556 3.6162-1.9108 5.7552-1.4574 8.7783 0.32967 2.1984 0.20401 4.2414-0.27922 4.5401-0.48325 0.29866-1.1468 1.6114-1.4745 2.9171-0.81549 3.2491-7.7523 14.435-10.241 16.513-1.115 0.93131-3.293 1.7207-4.8398 1.7543-1.5469 0.0336-3.5389 0.61275-4.4267 1.2871-1.4129 1.0732-0.74887 1.4416 5.3258 2.9543 6.6899 1.6659 7.0746 1.6675 10.673 0.0447 6.6126-2.9819 9.4958-6.8686 10.553-14.226 0.51081-3.5557 0.66694-8.4115 0.34697-10.791s-0.11044-6.0761 0.46564-8.2154c1.2737-4.7302 6.4115-10.985 7.8454-9.5507 0.67261 0.67262 0.26761 1.7238-1.3112 3.4032-2.1501 2.2871-2.3135 3.239-2.778 16.184-0.42399 11.816-0.78739 14.311-2.5781 17.701-1.1465 2.1709-2.0846 4.458-2.0846 5.0824 0 1.9288 2.9951 4.5643 5.1871 4.5643 2.5043 0 8.5125 2.4043 9.3354 3.7358 0.85546 1.3842 1.6753 1.2145 6.963-1.4414zm-192.62-77.529c0.69919-1.6758 1.5724-6.9055 1.9405-11.622l0.66923-8.5746-3.4894-6.8941c-5.85-11.558-6.8537-12.854-10.895-14.065-4.3786-1.3119-5.9228-0.34752-5.0449 3.1505 0.3538 1.4097 2.0557 3.1695 4.2672 4.4124 9.3142 5.2349 13.265 16.771 10.863 31.717-0.89754 5.5841-0.18722 6.3725 1.6893 1.875zm-49.802-12.252c1.8384-2.7697 4.2274-5.6284 5.309-6.3526 1.3295-0.89031 2.0916-2.5924 2.3529-5.2548 0.2126-2.1659 0.91454-4.7834 1.5599-5.8167 1.8828-3.0149 0.42559-3.1726-5.6571-0.61243-6.6153 2.7844-8.0775 2.8991-12.641 0.99216-5.2115-2.1775-6.2384-1.8762-6.2384 1.8308 0 2.6386 0.67979 3.7834 3.6769 6.1919 4.5712 3.6735 6.1233 7.2227 5.3296 12.187-0.56106 3.5086-0.47573 3.7129 1.1807 2.8264 0.982-0.52555 3.2896-3.2217 5.128-5.9914zm6.716-22.431c3.6094-1.5446 7.1045-3.2431 7.767-3.7746 0.83344-0.66856 2.7253-0.60141 6.1409 0.21796 7.1467 1.7145 8.2789 1.2533 9.5957-3.9087l1.1256-4.4123-4.5692-1.5176c-2.5131-0.83471-4.8315-1.9421-5.1521-2.4609-0.36253-0.58658-5.7724-0.82613-14.308-0.63355-13.666 0.30834-13.741 0.29858-17.458-2.2664-4.3854-3.026-9.7357-3.4443-11.966-0.9354-0.802 0.90234-2.0677 3.1172-2.8126 4.9219-0.74491 1.8047-2.0275 3.8395-2.8502 4.5217-1.3346 1.1068-1.075 1.6877 2.4096 5.3906 3.5328 3.7542 4.3216 4.1501 8.2671 4.1501 2.7384 0 4.7971 0.52473 5.5318 1.41 1.529 1.8424 6.4105 3.1881 9.3719 2.5837 1.2891-0.26309 5.2969-1.7421 8.9062-3.2867zm26.719-16.037c0-2.6665-4.3961-7.7244-8.4389-9.7092-2.3196-1.1388-8.1134-2.8481-12.875-3.7984-7.9752-1.5915-8.9177-2.0196-11.952-5.4294-2.9562-3.3216-3.2946-4.2552-3.2952-9.0923-5.66e-4 -4.1663-0.32011-5.3906-1.407-5.3906-0.77344 0-1.4062 0.51902-1.4062 1.1534 0 0.63436-1.5207 3.6171-3.3793 6.6282-5.6416 9.1401-5.2024 14.695 1.5943 20.168 2.4603 1.981 3.8248 2.2028 15.781 2.5649 8.2801 0.25078 14.398 0.89712 16.655 1.7595 3.1507 1.2038 5.7702 1.9565 8.0208 2.3046 0.38672 0.05981 0.70312-0.46167 0.70312-1.1589zm7.9259 82.761c-0.34226-0.55379 0.27758-1.9648 1.3774-3.1355 1.1246-1.1971 1.7572-2.7607 1.4454-3.5731-0.38452-1.002 1.9263-3.5567 7.5438-8.3401 9.5001-8.0893 19.409-19.212 22.499-25.253 1.2031-2.3527 2.8531-4.8302 3.6668-5.5054s1.4794-1.9355 1.4794-2.8005 0.51037-2.0831 1.1341-2.7068c0.76165-0.76165 1.1465-4.9792 1.1719-12.842 0.0328-10.19 0.23617-11.708 1.569-11.71 0.84221-0.0011 1.7601-0.8771 2.0398-1.9466 0.27968-1.0695 1.3639-2.1683 2.4094-2.4417 2.4567-0.64245 4.1618-3.3186 7.4796-11.739 2.3249-5.9007 2.7641-8.5214 3.1896-19.031 0.49475-12.219 2.8253-22.58 4.9207-21.875 1.2464 0.41918 1.0587 4.0787-0.79695 15.541-0.85507 5.2818-1.5547 11.529-1.5547 13.882 0 6.2583-1.7085 12.046-5.6987 19.305-3.7256 6.7778-3.3785 7.7853 1.7609 5.1113 5.4645-2.8432 10.182-10.868 12.971-22.062 1.7337-6.9586 4.9984-14.815 7.7788-18.72 1.0325-1.45 4.7338-3.9907 8.2346-5.6526 6.2762-2.9794 12.453-7.8888 12.453-9.898 0-0.68399-2.0286-0.90323-6.0111-0.64964-4.4438 0.28296-7.585-0.14101-12.048-1.6261-4.7338-1.5753-6.5858-1.8001-8.5812-1.0414-1.3995 0.53209-3.5064 0.96743-4.682 0.96743s-2.892 0.8338-3.8143 1.8529c-2.0499 2.2651-2.8894 1.8469-3.6194-1.803-0.38443-1.9221-1.7281-3.5388-4.2801-5.1498-2.0459-1.2915-5.4311-4.1292-7.5228-6.306l-3.803-3.9578-2.5848 2.3748c-1.4217 1.3061-3.9574 3.3161-5.6349 4.4667-2.1891 1.5014-3.3463 3.2685-4.0997 6.2605-0.57733 2.2927-1.4204 4.3977-1.8735 4.6777-0.45307 0.28002-3.5716-0.41904-6.93-1.5535-5.0763-1.7147-7.4504-1.9787-14.075-1.5654-7.2508 0.45236-10.753 1.6006-10.753 3.5258 0 0.3951 1.4421 0.98891 3.2047 1.3196 3.5994 0.67526 12.663 7.3332 16.777 12.324 4.0776 4.9468 6.2002 13.209 6.7284 26.19 0.44061 10.829 0.55067 11.32 2.9416 13.125 6.3472 4.7914 6.4969 4.9676 5.2763 6.2089-0.93769 0.95351-1.9459 0.63764-5.1478-1.6128-5.1556-3.6235-6.3076-6.0742-6.3471-13.502-0.076444-14.381-3.2832-25.366-9.1095-31.203-4.0963-4.1044-10.697-7.9203-14.792-8.5512-4.0077-0.61744-5.0464-0.19949-6.6295 2.6676-1.4957 2.7088-3.2143 2.8946-3.2143 0.34753 0-3.2695 5.0506-8.8078 10.594-11.617 6.9513-3.5226 18.228-4.2297 24.34-1.5262l4.3458 1.9223 2.0065-4.1449c1.1036-2.2797 2.369-4.1449 2.8121-4.1449 0.44306 0 1.9436-1.0547 3.3345-2.3438s2.7838-2.3466 3.0952-2.3502c0.31143-0.00352 1.5698-1.4801 2.7964-3.2812 1.2266-1.8012 2.6541-3.2748 3.1722-3.2748 1.0506 0 4.3367 3.5845 7.5083 8.1901 1.1491 1.6686 3.6347 3.6545 5.5236 4.413 1.8889 0.75853 4.0201 2.2154 4.736 3.2374 1.1247 1.6057 1.8047 1.7416 5.0031 0.99996 5.8166-1.3488 10.271-1.0604 16.404 1.0623 5.5355 1.9157 9.6968 2.0139 15.993 0.37738 6.23-1.6194 2.485 7.5964-5.0096 12.327-2.1732 1.3719-6.1767 3.4785-8.8968 4.6815-2.821 1.2476-4.9455 2.7955-4.9455 3.6032 0 0.77884-1.4766 4.248-3.2812 7.7092-1.8047 3.4612-3.2812 7.3673-3.2812 8.6801 0 4.2194-4.3273 16.214-7.1178 19.73-4.0747 5.1333-8.304 8.4262-10.823 8.4262-1.4157 0-2.8415 0.43287-3.1685 0.96194s-1.6837 0.84548-3.015 0.70312c-2.9186-0.31209-3.5118 1.3264-4.9975 13.804-1.0875 9.1331-4.0315 16.444-9.5459 23.706-3.4381 4.5276-13.561 15.157-18.52 19.448-3.4383 2.9744-9.9054 12.628-8.4598 12.628 0.46076 0 2.014-0.4472 3.4516-0.99378 1.4376-0.54657 12.622-1.359 24.855-1.8055 23.279-0.84959 34.338-2.0558 40.622-4.4308 2.0625-0.77948 5.4329-2.0355 7.4899-2.7912 5.673-2.0842 11.656-6.1866 11.695-8.0184 0.0189-0.89836 1.3015-2.7626 2.8505-4.1427 6.1604-5.4889 10.265-21.459 7.5953-29.549-2.3378-7.0836-6.401-12.003-12.069-14.612-2.9554-1.3603-6.4281-2.5331-7.7171-2.6063-1.2891-0.07318-4.1044-0.19896-6.2562-0.27951-8.0374-0.30088-11.961-7.0805-8.251-14.256 1.7443-3.3732 3.2572-3.5793 3.2572-0.44381 0 3.3353 3.1284 4.8687 11.25 5.5143 3.8672 0.3074 9.4776 1.2012 12.468 1.9862 2.99 0.78503 6.6143 1.4273 8.054 1.4273 1.795 0 3.95 1.2586 6.8573 4.0047 7.056 6.665 9.5559 13.497 9.2891 25.385-0.15271 6.8031-5.992 18.462-12.662 25.281-3.232 3.3043-5.9637 5.3304-6.9347 5.1434-2.7133-0.52254-1.777-2.9982 1.7646-4.6658 3.981-1.8745 6.4278-5.1506 11.703-15.67 2.3634-4.7128 2.4992-5.6345 2.0177-13.704-0.56452-9.4623-1.9955-13.2-7.5007-19.592-3.0723-3.5672-3.3912-3.6923-12.464-4.8881-5.1209-0.67499-11.37-1.2424-13.888-1.261-2.952-0.02176-5.6978-0.72655-7.7344-1.9852-2.6271-1.6236-3.1575-1.7085-3.1575-0.50527 0 3.124 3.6367 5.0003 10.981 5.6659 3.9309 0.35621 8.507 1.2158 10.169 1.9103 3.7282 1.5578 11.5 9.3634 13.104 13.162 2.2868 5.4142 2.6151 13.06 0.89398 20.819-1.6983 7.657-4.7781 15.274-6.1756 15.274-0.45152 0-1.8701 1.5854-3.1524 3.523s-3.925 4.3044-5.8727 5.2594c-1.9477 0.95504-4.1741 2.1145-4.9475 2.5765s-2.8828 1.5218-4.6875 2.355-3.9141 1.8201-4.6875 2.1931c-2.5341 1.2221-10.648 2.7147-17.812 3.2766-3.8672 0.3033-9.5624 1.1426-12.656 1.8652-4.3528 1.0167-6.6848 1.0847-10.312 0.30074-5.3658-1.1595-14.57-1.02-17.97 0.27246-1.27 0.48283-3.6526 0.88424-5.2949 0.892-1.6422 8e-3 -4.6733 0.62206-6.7358 1.3651-4.5243 1.6299-7.6397 1.7866-8.4804 0.42639zm33.483-79.16c-2.207-2.8058-3.4233-11.576-2.5182-18.157 0.69479-5.0517-0.88308-21.166-2.5815-26.363-0.58971-1.8047-1.6177-3.9473-2.2844-4.7613-1.7306-2.1129-1.4976-3.6762 0.54797-3.6762 2.7017 0 3.4936 1.6492 5.1765 10.781 0.85523 4.6406 2.0425 10.051 2.6385 12.023 0.82404 2.7268 0.81755 4.8733-0.0271 8.9627-2.0156 9.7588-1.4234 13.345 3.0698 18.591 2.811 3.2819 3.1607 3.8633 2.6382 4.3858-1.3504 1.3504-4.9526 0.38431-6.6598-1.7861z"/>
</svg>
