<?xml version="1.0" encoding="UTF-8"?>
<svg width="1097pt" height="519pt" version="1.1" viewBox="0 0 1097 519" xmlns="http://www.w3.org/2000/svg">
 <path d="m368.45 0h4.39c16.76 4.06 21.62 25.72 17.67 40.28-5.31 16.98-8.22 34.75-14.86 51.27-3.5 5.6-10.58 2.91-13.62-1.63-13.17-19.56-19.71-42.52-24.57-65.36-0.83-9.24 5.34-20.17 14.93-21.95 5.62 0.28 11.57 1.9 16.06-2.61z"/>
 <path d="m320.66 12.51c14.78-1.16 10.93 21.86 13.23 31.37-6.69-0.26-8.86-8.96-14.65-11.23-5.26-2.28-13.21-3.42-15.12-9.66 2.24-6.55 10.84-7.85 16.54-10.48z"/>
 <path d="m398.39 12.25c7.64 0.49 21.48 5.88 17.45 15.4-8.89 4.29-12.16 13.71-17.2 21.3-8.14 0.43 0.47-10.36-0.56-14.26 2.69-6.48-6.61-18.29 0.31-22.44z"/>
 <path d="m296.63 32.49c25.11 2.64 44.89 27.05 50.87 50.84 6.33 4.66 11.22 16.13 2.13 20.44-24.7-4.54-49.47-10.68-71.67-22.67-9.9-16.07-0.17-43.94 18.67-48.61z"/>
 <path d="m424.83 35.41c13.44-1.88 34.72 3.37 32.03 21.22-8.58 23.38-35.42 29.79-52.98 44.28-6.24 4.13-21 7.21-19.44-4.32 12.32-21.19 13.98-51.65 40.39-61.18z"/>
 <path d="m462.5 60.19c9.13-0.42 20.52 17.25 9.25 21.53-5.66-1.75-22.34 0.19-15.57-8.59 3.11-3.86 1.6-10.38 6.32-12.94z"/>
 <path d="m155.8 71.38c6.1-0.86 13.79-2.3 16.66 4.53 8.26-3.29 17.15-3.48 22.21 5.41 12.07 28.49-9.47 56.17-29.17 74.59-9.19 3.62-22.35-0.79-20.29-13.17-4.7-23.41-16.98-58.34 10.59-71.36z"/>
 <path d="m261.54 72.25c7.44 0.22 9.87 11.74 15.41 16.02-2.59 6.27-13.49 6.71-18.83 11.82-8.51-6.09-3.37-21.77 3.42-27.84z"/>
 <path d="m121.74 73.41c4.37-0.47 16.33-2.77 15.05 5.29-4.75 9.27-5.9 19.54-5.27 29.79-11.91 1.36-8.62-18.93-17.61-24.58-6.41-5.87 2.28-10.27 7.83-10.5z"/>
 <path d="m90.82 81.35c6.09-1.09 13.32-0.8 17.63 4.31 13.65 20.1 17.33 44.88 28.74 66.14 2.75 7.15-9.26 8.95-13.79 5.89-15-9.84-30.69-18.55-47.03-26.03-11.52-4.56-21.31-17.55-18.18-30.22 3.97-8.97 15.09-7.98 23.31-7.68 3.79-3.38 3.12-11.92 9.32-12.41z"/>
 <path d="m207.47 82.07c11.17-1.46 32.95 21.44 11.5 22.84-6.22 1.26-8.65 9.1-14.88 10.09-5.54-2.07-2.57-9.76-0.91-13.83 3.51-5.86-1.18-14.54 4.29-19.1z"/>
 <path d="m449.47 85.53c8.64-0.34 17.2 3.49 25.16 6.67 6.7 5.27 2.59 14.9 5.1 22 3.03 8.22-2.71 17.01-11.07 18.48-21.39 9.43-43.45-2.6-65.18-4.02-10.64 1.54-11.25-14.97-2.81-18.1 17.81-5.45 29.07-23.79 48.8-25.03z"/>
 <path d="m281.65 98.48c20.54-1.99 40.02 8.17 57.88 16.95 8.3 2.02 14.01 15.54 3.32 18.48-23.73 13.51-51.57 30.64-79.59 19.87-6.69-8.72-3.53-21.64-4.11-32-6.27-13.67 11.32-22.82 22.5-23.3z"/>
 <path d="m367.69 98.43c20.39-1.7 29.96 29.27 15.6 42.06-9.68 3.79-21.6 1.84-27.9-6.91-10.74-11.36-3.77-33.2 12.3-35.15z"/>
 <path d="m218.93 109.35c15.41-4.76 30.01 11.18 24.28 26.14 11.51 3.48 16.16 25.68 2.09 29.98-21.3 3.28-42.11 10.61-63.91 10.6-6.09-4.35-10.8-15.09-2.03-19.79 18.66-11.06 21.84-35.75 39.57-46.93z"/>
 <path d="m48.48 119.28c7.72 2.43 13.39 12.72 21.68 16.6-9.78 3.85-22.98-2.67-33.23 3.81-4.11-5.95 5.41-16.36 11.55-20.41z"/>
 <path d="m554.61 123.51c7-1.74 13.54 4.84 20.64 1.67 6.35-3.52 15.97-2.43 17.87 5.81 8.07 20.41-4.1 41.27-14.84 58.15-4.76 10.03-18.24 4.72-26.88 5.01-5.8-12.6-7.84-26.86-14.39-39.33-6.44-14.42 2.72-29.67 17.6-31.31z"/>
 <path d="m521.09 132.35c2.57 0.07 6.31 0.65 7.32 3.36-0.48 13.8 2.23 27.57 7.48 40.28-6.35-6.52-11.07-17.37-20.99-20.88-5.27-3.45-17.26-1.86-13.43-11.33 5.01-5.54 11.76-10.78 19.62-11.43z"/>
 <path d="m479.51 137.19c11.34-1.3 7.7 28.29-4.49 18.88-6.05-7.59-22.49-2.46-24.83-11.03 8.63-2.97 21.31-0.44 29.32-7.85z"/>
 <path d="m394.55 138.27c8.78-2.08 16.07 3.77 23.9 6.34 17.43 3.55 36.32 8.86 48.68 22.34 6.79 11.44-4.59 21.54-5.38 32.72-2.38 11.08-17.76 16.17-26.07 7.65-18.03-10.38-17.21-34.04-32.21-46.8-4.42-6.28-13.93-14.4-8.92-22.25z"/>
 <path d="m52.67 141.38c21.09-1.81 40.78 9.23 58.25 19.7 9.76 6.25 20.63 18.4 13.39 30.42-25.27 5.67-52.79 17.03-78.25 5.5-10.46-5.5-10.67-17.86-8.16-27.81-5.21-11.42 4.43-23.47 14.77-27.81z"/>
 <path d="m349.49 145.37c5.96-0.52 17.37 1.93 14.49 10.59-2.65 19.93-10.8 38.31-18.22 56.71-6.94 20.87-40.61 26.98-46 2.58-15.42-3.13-20.62-24.34-8.43-34.08 12.73-20.78 36.93-27.96 58.16-35.8z"/>
 <path d="m378.57 150.08c22.13 7.55 34.93 33.05 39.31 55.16 5.85 15.14-3.63 35.4-21.37 33.98-8.44 6.32-23.74 9.8-31.19 0.32-13.26-29.06-2.8-64.03 13.25-89.46z"/>
 <path d="m603.56 151.23c5.4 1.86 21.36 1.28 19.86 10.1-13.73 2.33-22.25 15.03-33.17 20.49 4.1-9.87 7-22.05 13.31-30.59z"/>
 <path d="m491.79 157.38c21.54-2.8 36.38 18.73 47.05 34.82 6.36 7.3 2.42 17.79-2.81 24.3-21.08 1.1-44.35 0.9-63.73-8.65-9.57-5.35-3.92-16.37 1.1-22.64 1.81-11.14 5.15-25.39 18.39-27.83z"/>
 <path d="m155.29 166.58c25.22-0.8 25.05 40.89 0.53 41.34-18.32 3.3-27.31-20.78-19.17-34.31 5.58-3.51 12.17-5.88 18.64-7.03z"/>
 <path d="m266.34 166.26c8.9 0.37 17.86 0.27 26.76 0.67-6.08 5.69-9.04 20.19-18.33 19.54-3.48-5.06-17.28-14.78-8.43-20.21z"/>
 <path d="m629.63 167.55c17.79-1.49 30.77 17.89 23.48 34.05 8.2 9.34 5.61 27.24-7.93 29.84-19.73 0.26-41.29-0.12-59.06-9.7-1.06-6.05-6.8-12.4-1.83-18.26 13.27-13.94 26.07-30.31 45.34-35.93z"/>
 <path d="m761.42 177.56c19.57-1.93 11.45 20.64 9.52 29.33-5.31-5.61-11.66-12.05-20.11-14.74-7.97-7.31 3.32-14.08 10.59-14.59z"/>
 <path d="m238.66 180.51c14.66-1.64 39.1 5.07 38.26 23.81-8.73 7.65 2.7 22.81-10.15 27.69-30.47 8.02-52.45-20.26-79.73-27.83-9.77-1.36-9.56-10.26-5.48-17.18 19.33 1.03 38.17-3.52 57.1-6.49z"/>
 <path d="m790.33 184.31c8.09 4.44 17.67 1.11 25.9 3.34 17.91 24.87 5.45 57.67-7.88 81.58-2.11 8.2-10.26 9.57-17.13 6.65-2.25-24.38-16.96-46.58-14.55-71.55 0.28-8.51 4.65-18.09 13.66-20.02z"/>
 <path d="m736.32 191.38c21.13 3.55 34.67 25.75 37.71 45.68 1.08 13.92 9.38 26.3 9.6 40.28-14.23 11.69-21.85-11.04-32.45-16.54-15.55-7.03-24.88-21.67-35.93-33.99-8.44-7.65-6.68-27.61 7.58-25.87 6.25-0.28 6.95-9.54 13.49-9.56z"/>
 <path d="m0 212.75c3.87-10.74 12.8-22.04 25.51-20.32 12.86-0.85 18.25 15.9 12.67 25.61-3.15 10.62-21.97 10.46-19.79 23.71 7.33 52.2 59.64 90.01 109.81 94.87 24.64 1.95 51.92-16.93 49.12-43.66-1.8-12.14 10.22-5.13 10.9 1.89 11.13 14.34 2.64 33.37-11.14 42.22-20.46 17.31-49.38 12.95-73.02 5.7-2.12 0.67-8.52-4-9.13-0.12 29.27 15.03 63.11 21.53 95.72 16.05 14.12-3.87 29.1-9.95 36.41-23.65 11.48-16.14 14.62-38.68 32.12-50.04 14.6-8.03 33.48 4.21 37.75 18.68-5.28 15.3-21.67-2.06-29.2 9.09-10.86 16.1-23.34 34.02-42.74 40.08-2.23 0.28-6.15 4.97-1.94 4.61 37.71-7.17 76.82-22 101.7-52.66 6.48-6.84 8-16.82 8.11-25.84-12.14-8.27-28.43-18.72-24.57-36.02 1.24-7.78 10.81-3.98 15.46-1.47 0.14 6.13-1.73 13.78 2.78 18.87 6.32 7.39 18.32-1.21 24.48 6.64 12.87 11.66 7.76 31.73-3.5 42.54-42.69 48.78-112.56 58.64-173.66 60.56 0.3 5.26 8.31 1.51 11.8 2.51 20.65 5.42 42.22 2.12 63.23 1.76 68.22-2.25 140.12-34.32 175.42-95.05 4.16-9.3 7.95-22.12-0.62-30.18-8.69-10.22-2.2-32 12.82-29.68 14.39 0.09 23.34 16.16 19.03 29.07-8.16 72.17-80.51 115.89-146.64 126.59 19.23 4.65 42.5-5.96 62.29-10.93 69.11-17.87 138.46-35.11 208.65-48.37 50.99-5.49 102.04-12 153.38-12.85 65.16-3.58 129.36 11.44 192.31 26.47 29.53 12.09 60.28 22.72 86.32 41.74 40.87 23.34 77.43 61.29 85.16 109.27v4.54c-2.15 13.37-8.38 32.64-24.26 34.02h-7.14c-16.46-4.14-13.48-25.73-0.4-31.78 17.63-5.46 9.09-28.55 3.38-40.77-13.24-17.49-28.68-34.44-48.75-44.27-84.73-53.77-185.35-77.71-285.18-77.97-94.41 1.68-190.31 10.06-280.98 37.41-48.55 13.93-98.33 24.25-148.46 30.69-65.21 12.41-133.95 6.62-194.02-22.51-51.74-27.35-101.3-72.18-111.19-132.56v-24.49z"/>
 <path d="m831.39 193.12c6.63 0.87 16.82 4.34 16.47 12.23-4.81 2.1-8.75 8.01-14.41 7.48-3.7-5.27-8.3-14.73-2.06-19.71z"/>
 <path d="m116.66 203.42c8.13-3.31 21.97 1.46 16.38 12.37-13.54 21.79-22.33 51.51-49.2 60.28-12.99 3.93-29.86-2.16-31.81-16.95-8.87-8.86-13.5-23.64-3.35-33.47 20.06-13.48 45.33-15.4 67.98-22.23z"/>
 <path d="m560.36 203.42c15.75 0.41 27.04 22.14 15.38 34.21-8.27 6.06-20.76 4.16-28.61-1.8-7.57-11.52-1.22-30.56 13.23-32.41z"/>
 <path d="m45.71 205.17c3.19 0.71 12.21-1.79 12.15 3.54-3.83 3.34-7.32 8.23-12.63 9.25-3.58-3.22-4.97-10.71 0.48-12.79z"/>
 <path d="m170.68 212.16c18.02 0.37 32.74 14.01 48.21 21.96 15.59 7.43 30.89 23.36 26.61 42.05-3.59 8.74-13.19 8.7-20.95 9.68 1.71 12.8-11.34 18.75-22.13 14.87-21.13-20.23-21.61-51.78-33.28-77.06-1.13-3.67-2.93-9.5 1.54-11.5z"/>
 <path d="m859.58 212.45c14.71-0.08 27.24 19.54 21.44 33.38-12.19 15.8-30.84 24.98-48.1 34.16-6.31 3.09-21.47 7.84-20.96-3.89 9.1-24.92 19.63-54.64 47.62-63.65z"/>
 <path d="m146.39 216.33c11.68-2.02 14.91 10.84 17.99 19.29 8.86 19.02 14.22 41.75 4.93 61.66-5.14 13.01-22.9 13.22-32.39 5.06-14.16 4.71-24.63-9.99-21.37-22.71 1.89-17.69 12.46-32.72 19.65-48.49 1.84-5.87 4.28-13.56 11.19-14.81z"/>
 <path d="m467.52 218.31c13.43 0.82 26.24 5.71 39.72 6.16 3.81 5.04-5.98 5.39-8.66 5.34-11.5-1.71-20.88 9.43-31.86 7.6-1.64-4.62-5.04-16.25 0.8-19.1z"/>
 <path d="m349.44 221.2c9.36 1.48 4.59 19.89 9.52 26.71-5.6 3.95-28.15 3.65-27.77-8.27 6.8-5.43 11.65-12.94 18.25-18.44z"/>
 <path d="m701.59 227.22c7.87-0.39 10.26 10.74 16.06 15.13 11.72 12.97-9.01 5.34-14.75 1.74-10.66-0.67-8.87-12.96-1.31-16.87z"/>
 <path d="m587.19 234.4c16.92 9.33 36.34 12.23 53.61 20.74 14.81 3.69 14.28 26.37 1.46 32.41 1.14 13.36-15.87 15.27-25.71 15.18-20.66-11.58-23.07-38.02-36.86-55.52-4.44-5.23 3.79-10.34 7.5-12.81z"/>
 <path d="m505.78 235.62c12.1 0.89 36.07-7.58 39.07 10.15-12.5 19.73-17.61 46.39-40.09 57.91-11.18 8.45-33.32 0.57-29-15.3-13.04-1.7-18.93-16.01-13.13-27.77 6.05-17.79 26.66-22.75 43.15-24.99z"/>
 <path d="m621.39 237.31c10.46-0.49 21.13 5.16 31.33 0.39 11.83-4.8 8.76 22.19-2.03 15.79-8.91-5.55-18.84-8.96-28.7-12.48-2.29-0.07-2.76-3.53-0.6-3.7z"/>
 <path d="m241.31 239.23c8.4 1.61 18.07 5.1 25.83-0.12 4.16 7.53-1.57 22.42-9.99 27.22-7.27 3.31-5.56-9.76-8.44-12.86-1.35-4.57-10.75-9.46-7.4-14.24z"/>
 <path d="m557.79 251.19c11.75-4.57 13.8 8 16.27 15.77 3.36 13.53 14.09 27.2 7.4 41.63-16.36 1.21-32.75 7.44-48.65 7.38-4.07-23.47 9.16-47.86 24.98-64.78z"/>
 <path d="m692.8 254.28c27.74-0.76 50.76 17.64 72.94 31.97 3.62 1.67 2.79 8.43-1.47 8.21-23.48 2.15-47-1.78-70.45 1.05-10.94 3.14-15.28-10.59-10.74-18.36 4.82-7.34-1.4-20.04 9.72-22.87z"/>
 <path d="m885.49 254.3c7.55-1.68 13.61 9.5 9.98 15.58-11.1-0.8-22.19-1.45-32.74 2.77-4.42 1.15-2.37-4.27 0.89-4.13 9.23-1.31 14.06-10.27 21.87-14.22z"/>
 <path d="m585.21 275.16c9.51 4.62 12.09 20.04 18.68 28.96-3.94 2.08-13.51 4.81-17.75 0.65 1.11-9.9-0.32-19.75-0.93-29.61z"/>
 <path d="m660.83 278.37c6.25-1.96 20-0.34 17.72 9.12-7.73 1.6-18.48 4.66-24.57-1.86-0.5-4.02 3.27-6.71 6.85-7.26z"/>
 <path d="m866.63 279.53c21.71-9.99 46.06 11.92 33.52 33.17-24.53-0.88-48.39-9-72.98-10.65-7.22 0.33-7.44-12.83 0.01-12.98 12.91-3.98 25.95-8.12 39.45-9.54z"/>
 <path d="m100.68 280.55c10.43-2.61 1.71 12.58 5.14 18.11-8.34 5.95-25.8-0.46-26.61-11.22 5.78-4.74 14.76-3.37 21.47-6.89z"/>
 <path d="m789.78 287.53c7.04-1.46 22.6 2.15 21.77 11.26-10.42 0.92-20.5-3.01-30.88-3.3-2.81-5.23 5.5-6.88 9.11-7.96z"/>
 <path d="m524.47 299.34c1.45 4.28 2.16 14.13-0.16 19.93-5.38 3.28-14.77 0.21-18.27-4.43 3.7-6.55 12.32-10.65 18.43-15.5z"/>
 <path d="m474.77 312.4c4.36-2.09 18.11-0.64 9.07 5.4-20.34 13.1-44.42 19.45-66.82 28.33-3.17-0.62-12.12 4.71-12.99 0.14 24.78-8.62 47.21-22.89 70.74-33.87z"/>
</svg>
